<svg xmlns="http://www.w3.org/2000/svg" width="60" height="60" viewBox="0 0 60 60"><defs><style>.a{fill:#fff;stroke:#707070;}.b,.c{fill:#adadad;}.b{opacity:0;}.d{stroke:none;}.e{fill:none;}</style></defs><g transform="translate(-1503 -255)"><g transform="translate(1503 255)"><g class="a"><circle class="d" cx="30" cy="30" r="30"/><circle class="e" cx="30" cy="30" r="29.5"/></g><g transform="translate(30 30)"><g transform="translate(-30 -30)"><rect class="b" width="60" height="60"/><path class="c" d="M18,23A10,10,0,1,0,8,13,10,10,0,0,0,18,23Z" transform="translate(12 4.5)"/><path class="c" d="M37.5,33A2.5,2.5,0,0,0,40,30.5a17.5,17.5,0,1,0-35,0A2.5,2.5,0,0,0,7.5,33Z" transform="translate(7.5 19.5)"/></g></g></g></g></svg>